<svg xmlns="http://www.w3.org/2000/svg" width="64" height="64" viewBox="0 0 64 64" version="1.1"><path d="M 25.216 15.281 C 22.347 18.186, 20 21.111, 20 21.781 C 20 24.026, 23.373 23.031, 26.702 19.804 L 30 16.608 30 31.304 C 30 45.333, 30.091 46, 32 46 C 33.909 46, 34 45.333, 34 31.304 L 34 16.608 37.298 19.804 C 40.667 23.069, 44 24.020, 44 21.716 C 44 19.930, 33.774 10, 31.934 10 C 31.108 10, 28.085 12.377, 25.216 15.281 M 15 57 C 15 58.922, 15.667 59, 32 59 C 48.333 59, 49 58.922, 49 57 C 49 55.078, 48.333 55, 32 55 C 15.667 55, 15 55.078, 15 57" stroke="none" fill="#fffcfc" fill-rule="evenodd"/><path d="" stroke="none" fill="#fcfcfc" fill-rule="evenodd"/></svg>