<?xml version="1.0" encoding="UTF-8"?>
<svg version="1.1" xmlns="http://www.w3.org/2000/svg" width="50" height="50">
<path d="M0 0 C0.66 0 1.32 0 2 0 C2 3.63 2 7.26 2 11 C-1.63 11 -5.26 11 -9 11 C-9 10.34 -9 9.68 -9 9 C-7.35 8.67 -5.7 8.34 -4 8 C-9.64074401 4.23950399 -15.37289464 4.20724143 -22 5 C-27.41719727 6.73703608 -30.76030042 10.52159175 -34 15 C-35.78244185 20.34732556 -36.02356669 26.75383135 -34.31640625 32.16796875 C-31.61880012 37.2385728 -27.45148573 41.18283809 -22 43 C-14.54131935 43.66517474 -9.01450634 43.66431104 -3 39 C0.54044111 35.45955889 2.88615461 32.38070795 3.1328125 27.22265625 C3.13023438 26.17980469 3.12765625 25.13695312 3.125 24.0625 C3.12757812 23.02222656 3.13015625 21.98195313 3.1328125 20.91015625 C3.01932023 18.42334029 2.71928571 16.36907593 2 14 C3.32 14 4.64 14 6 14 C8.16798741 20.50396222 8.30781164 29.18286114 5.4375 35.5 C2.07080376 41.06340585 -2.81443794 45.03349183 -9 47 C-16.8438829 47.80594257 -24.59184467 48.09671889 -31 43 C-35.70447914 38.54867668 -38.65997071 34.30935484 -39.3359375 27.73046875 C-39.4271634 19.45628003 -39.17810264 13.41571985 -33.3515625 7.2578125 C-26.85066573 1.32467964 -21.15593469 0.57275568 -12.47265625 0.6640625 C-7.77808013 1.11820597 -4.9415014 2.4774391 -1 5 C-0.67 3.35 -0.34 1.7 0 0 Z " fill="#FFFFFF" transform="translate(41,1)"/>
<path d="M0 0 C0.66 0 1.32 0 2 0 C4.16469883 15.98156561 4.16469883 15.98156561 1.390625 20.7890625 C-0.70093261 22.64398403 -2.38992249 23.99423705 -5 25 C-5.99 24.67 -6.98 24.34 -8 24 C-6.8047876 21.17495251 -5.73584081 19.75516953 -3.4375 17.625 C0.73382443 12.91385711 -0.08961551 5.94721093 0 0 Z " fill="#FFFFFF" transform="translate(24,10)"/>
</svg>
