<svg xmlns="http://www.w3.org/2000/svg" xmlns:xlink="http://www.w3.org/1999/xlink" version="1.1" width="1000" height="1000" viewBox="0 0 1000 1000" xml:space="preserve">
<desc>Created with Fabric.js 3.5.0</desc>
<defs>
</defs>
<rect x="0" y="0" width="100%" height="100%" fill="#ffffff"/>
<g transform="matrix(1.1364 0 0 1.1364 500.0145 500.0145)" id="272339">
<g style="" vector-effect="non-scaling-stroke">
		<g transform="matrix(33.3333 0 0 33.3333 -0.0005 -0.0005)" id="view-box">
<rect style="stroke: none; stroke-width: 1; stroke-dasharray: none; stroke-linecap: butt; stroke-dashoffset: 0; stroke-linejoin: miter; stroke-miterlimit: 4; is-custom-font: none; font-file-url: none; fill: none; fill-rule: nonzero; opacity: 1;" x="-12" y="-12" rx="0" ry="0" width="24" height="24"/>
</g>
		<g transform="matrix(33.3333 0 0 33.3333 -11.3377 0.0207)" id="Shape">
<path style="stroke: none; stroke-width: 1; stroke-dasharray: none; stroke-linecap: butt; stroke-dashoffset: 0; stroke-linejoin: miter; stroke-miterlimit: 4; is-custom-font: none; font-file-url: none; fill: rgb(255,255,255); fill-rule: nonzero; opacity: 1;" transform=" translate(-10.0919, -9.7506)" d="M 9.682 18.75 a 0.75 0.75 0 0 1 0.75 -0.75 a 8.25 8.25 0 1 0 -6.189 -2.795 V 12.568 a 0.75 0.75 0 0 1 1.5 0 v 4.243 a 0.75 0.75 0 0 1 -0.751 0.75 H 0.75 a 0.75 0.75 0 0 1 0 -1.5 H 3 a 9.75 9.75 0 1 1 7.433 3.44 A 0.75 0.75 0 0 1 9.682 18.75 Z m 2.875 -4.814 L 9.9 11.281 a 0.754 0.754 0 0 1 -0.22 -0.531 V 5.55 a 0.75 0.75 0 1 1 1.5 0 v 4.889 l 2.436 2.436 a 0.75 0.75 0 1 1 -1.061 1.06 Z" stroke-linecap="round"/>
</g>
</g>
</g>
</svg>